# AST/ASF file generated using VICON BodyLanguage
# -----------------------------------------------
:version 1.10
:name VICON
:units
  mass 1.0
  length 0.45
  angle deg
:documentation
   .ast/.asf automatically generated from VICON data using
   VICON BodyBuilder and BodyLanguage model FoxedUp or BRILLIANT.MOD
:root
   order TX TY TZ RX RY RZ
   axis XYZ
   position 0 0 0  
   orientation 0 0 0 
:bonedata
  begin
     id 1 
     name lhipjoint
     direction 0.561001 -0.76473 0.316963 
     length 2.4722 
     axis 0 0 0  XYZ
  end
  begin
     id 2 
     name lfemur
     direction 0.34202 -0.939693 0  
     length 7.59403  
     axis 0 0 20  XYZ
    dof rx ry rz
    limits (-160.0 20.0)
           (-70.0 70.0)
           (-60.0 70.0)
  end
  begin
     id 3 
     name ltibia
     direction 0.34202 -0.939693 0   
     length 7.89655   
     axis 0 0 20   XYZ
    dof rx
    limits (-10.0 170.0)
  end
  begin
     id 4 
     name lfoot
     direction 0.061296 -0.168409 0.98381   
     length 2.73287   
     axis -90 7.62852e-016 20   XYZ
    dof rx rz
    limits (-45.0 90.0)
           (-70.0 20.0)
  end
  begin
     id 5 
     name ltoes
     direction 1.53547e-011 -4.21984e-011 1   
     length 1.37057   
     axis -90 7.62852e-016 20   XYZ
    dof rx
    limits (-90.0 20.0)
  end
  begin
     id 6 
     name rhipjoint
     direction -0.559611 -0.765599 0.317323   
     length 2.46939  
     axis 0 0 0  XYZ 
  end
  begin
     id 7 
     name rfemur
     direction -0.34202 -0.939693 0   
     length 7.53712   
     axis 0 0 -20   XYZ
    dof rx ry rz
    limits (-160.0 20.0)
           (-70.0 70.0)
           (-70.0 60.0)
  end
  begin
     id 8 
     name rtibia
     direction -0.34202 -0.939693 0   
     length 8.12549   
     axis 0 0 -20   XYZ
    dof rx
    limits (-10.0 170.0)
 end
 begin
     id 9 
     name rfoot
     direction -0.066984 -0.184037 0.980634   
     length 2.67541  
     axis -90 -7.62852e-016 -20   XYZ
    dof rx rz
    limits (-45.0 90.0)
           (-20.0 70.0)
  end
  begin
     id 10 
     name rtoes
     direction -1.53549e-011 -4.21786e-011 1   
     length 1.34085   
     axis -90 -7.62852e-016 -20   XYZ
    dof rx
    limits (-90.0 20.0)
  end
  begin
     id 11 
     name lowerback
     direction -0.0522728 0.992594 -0.109658   
     length 2.05633   
     axis 0 0 0   XYZ
    dof rx ry rz
    limits (-20.0 45.0)
           (-30.0 30.0)
           (-30.0 30.0)
  end
  begin
     id 12 
     name upperback
     direction 0.00589338 0.999977 0.00335704   
     length 2.05845   
     axis 0 0 0   XYZ
    dof rx ry rz
    limits (-20.0 45.0)
           (-30.0 30.0)
           (-30.0 30.0)
  end
  begin
     id 13 
     name thorax
     direction 0.0292928 0.998059 0.0549487   
     length 2.09281   
     axis 0 0 0   XYZ
    dof rx ry rz
    limits (-20.0 45.0)
           (-30.0 30.0)
           (-30.0 30.0)
  end
  begin
     id 14 
     name lowerneck
     direction 0.0356368 0.980775 0.191858   
     length 1.84767   
     axis 0 0 0   XYZ
    dof rx ry rz
    limits (-20.0 45.0)
           (-30.0 30.0)
           (-30.0 30.0)
  end
  begin
     id 15 
     name upperneck
     direction -0.0227605 0.98931 -0.14404   
     length 1.89582   
     axis 0 0 0   XYZ
    dof rx ry rz
    limits (-20.0 45.0)
           (-30.0 30.0)
           (-30.0 30.0)
  end
  begin
     id 16
     name head
     direction -0.00932985 0.997511 -0.0698904  
     length 1.90213  
     axis 0 0 0   XYZ
    dof rx ry rz
    limits (-20.0 45.0)
           (-30.0 30.0)
           (-30.0 30.0)
  end
  begin
     id 17 
     name lclavicle
     direction 0.873442 0.479511 0.0846686  
     length 3.41193  
     axis 0 0 0   XYZ
    dof ry rz
    limits (-20.0 10.0)
           (0.0 20.0)
  end
  begin
     id 18 
     name lhumerus
     direction 1 -4.4897e-011 -5.62117e-018   
     length 5.59864   
     axis 180 -30 -90   XYZ
    dof rx ry rz
    limits (-60.0 90.0)
           (-90.0 90.0)
           (-90.0 90.0)
  end
  begin
     id 19
     name lradius
     direction 1 -4.48966e-011 -6.26295e-027   
     length 3.59542   
     axis 180 -30 -90   XYZ
    dof rx
    limits (-10.0 170.0)
  end
  begin
     id 20
     name lwrist
     direction 1 -4.48947e-011 -1.74096e-026   
     length 1.79771   
     axis 1.04567e-014 90 90   XYZ
    dof ry
    limits (-180.0 0.0)
 end
  begin
     id 21 
     name lhand
     direction 1 -4.49085e-011 -3.48469e-026   
     length 0.572014   
     axis 2.22196e-014 90 90   XYZ
    dof rx rz
    limits (-90.0 90.0)
           (-45.0 45.0)
  end
  begin
     id 22 
     name lfingers
     direction 1 -4.48884e-011 -6.96135e-026   
     length 0.461173   
     axis 4.44383e-014 90 90   XYZ
    dof rx
    limits (0.0 90.0)
  end
  begin
     id 23
     name lthumb
     direction 0.707107 -6.34976e-011 0.707107   
     length 0.662154   
     axis -90 45 -5.4397e-014   XYZ
    dof rx rz
    limits (-45.0 45.0)
           (-45.0 45.0)
  end
  begin
     id 24 
     name rclavicle
     direction -0.890242 0.443271 0.104786   
     length 3.46753  
     axis 0 0 0   XYZ 
    dof ry rz
    limits (-10.0 20.0)
           (-20.0 0.0)
  end
  begin
     id 25 
     name rhumerus
     direction -1 -4.48963e-011 -5.41723e-018  
     length 5.8094   
     axis 180 30 90   XYZ
    dof rx ry rz
    limits (-90.0 60.0)
           (-90.0 90.0)
           (-90.0 90.0)
  end
  begin
     id 26 
     name rradius
     direction -1 -4.48958e-011 -6.51059e-027   
     length 3.66953   
     axis 180 30 90   XYZ
    dof rx
    limits (-10.0 170.0)
  end
  begin
     id 27 
     name rwrist
     direction -1 -4.48975e-011 -1.74124e-026   
     length 1.83476   
     axis 1.04567e-014 -90 -90   XYZ
    dof ry
    limits (-180.0 0.0)
  end
  begin
     id 28
     name rhand
     direction -1 -4.49013e-011 -3.48326e-026   
     length 0.57843   
     axis 2.22196e-014 -90 -90   XYZ
    dof rx rz
    limits (-90.0 90.0)
           (-45.0 45.0)
  end
  begin
     id 29
     name rfingers
     direction -1 -4.49023e-011 -6.9669e-026   
     length 0.466345   
     axis 4.44383e-014 -90 -90   XYZ
    dof rx
    limits (0.0 90.0)
  end
  begin
     id 30
     name rthumb
     direction -0.707107 -6.34926e-011 0.707107   
     length 0.669581   
     axis -90 -45 5.4397e-014   XYZ
    dof rx rz
    limits (-45.0 45.0)
           (-45.0 45.0)
  end
:hierarchy
  begin
    root lhipjoint rhipjoint lowerback
    lhipjoint lfemur
    lfemur ltibia
    ltibia lfoot
    lfoot ltoes
    rhipjoint rfemur
    rfemur rtibia
    rtibia rfoot
    rfoot rtoes
    lowerback upperback
    upperback thorax
    thorax lowerneck lclavicle rclavicle
    lowerneck upperneck
    upperneck head
    lclavicle lhumerus
    lhumerus lradius
    lradius lwrist
    lwrist lhand lthumb
    lhand lfingers
    rclavicle rhumerus
    rhumerus rradius
    rradius rwrist
    rwrist rhand rthumb
    rhand rfingers
  end

#!OML:ASF H:\SkateBoarding\Project 1\Capture day 1\Session 1\Skater.ASF
:FULLY-SPECIFIED
:DEGREES
48
root 1.9445 19.5363 -22.4899 -9.18839 67.7298 -15.2146
lowerback 4.62296 -2.20684 -5.80195
upperback -2.35982 -3.35718 -0.821101
thorax -4.76676 -1.48277 2.67739
lowerneck -13.5714 -6.62303 -4.33314
upperneck 39.3906 -9.67753 4.64938
head 17.1283 -3.67963 1.17828
rclavicle 1.6201e-014 2.8625e-014
rhumerus -41.9651 -2.99183 -84.8074
rradius 34.3052
rwrist -2.66074
rhand -35.9466 5.77673
rfingers 7.12502
rthumb -9.05826 -24.0088
lclavicle 1.6201e-014 2.8625e-014
lhumerus -31.7827 12.6722 79.9357
lradius 23.8158
lwrist 18.6136
lhand -28.7245 31.3219
lfingers 7.12502
lthumb -2.08561 61.2915
rfemur -20.6906 -1.03225 24.1859
rtibia 38.1841
rfoot -26.579 3.37518
rtoes -9.59247
lfemur -5.53994 -5.89442 -10.791
ltibia 34.9935
lfoot -46.2207 11.5592
ltoes -17.4869
49
root 1.97494 19.5329 -22.2009 -8.63257 66.7703 -14.5895
lowerback 4.61556 -2.16857 -5.72592
upperback -2.38441 -3.29852 -0.720155
thorax -4.79131 -1.45398 2.73578
lowerneck -13.6741 -6.50256 -4.26292
upperneck 39.3516 -9.48886 4.55148
head 17.1051 -3.60943 1.15299
rclavicle -3.04389e-014 -7.95139e-015
rhumerus -41.3793 -5.73255 -83.5429
rradius 33.2281
rwrist -3.15
rhand -36.2764 4.88021
rfingers 7.12502
rthumb -9.3765 -24.8912
lclavicle -3.04389e-014 -7.95139e-015
lhumerus -32.5488 12.7787 80.1618
lradius 23.9039
lwrist 18.5351
lhand -28.5009 31.2144
lfingers 7.12502
lthumb -1.8697 61.186
rfemur -20.9393 -0.961252 24.0864
rtibia 38.4478
rfoot -25.8325 3.59618
rtoes -9.85015
lfemur -5.18194 -5.85175 -11.1363
ltibia 34.8565
lfoot -46.9163 11.9081
ltoes -17.1013
50
root 2.00458 19.5311 -21.9121 -8.08743 65.7759 -13.9479
lowerback 4.62971 -2.12489 -5.69311
upperback -2.39396 -3.23652 -0.626027
thorax -4.81101 -1.4226 2.8115
lowerneck -13.7804 -6.37405 -4.16786
upperneck 39.3135 -9.29602 4.45344
head 17.0818 -3.53385 1.12407
rclavicle 2.59166e-014 1.74931e-014
rhumerus -40.8907 -8.39549 -82.3448
rradius 32.3055
rwrist -3.78728
rhand -36.5825 3.92583
rfingers 7.12502
rthumb -9.67187 -25.8321
lclavicle 2.59166e-014 1.74931e-014
lhumerus -33.2491 12.816 80.4417
lradius 24.0253
lwrist 18.5315
lhand -28.1878 30.9651
lfingers 7.12502
lthumb -1.56726 60.9391
rfemur -21.2087 -0.878506 23.9843
rtibia 38.7649
rfoot -25.0386 3.73379
rtoes -10.2059
lfemur -4.82288 -5.66943 -11.4679
ltibia 34.74
lfoot -47.4804 12.1812
ltoes -16.7211
51
root 2.03387 19.5303 -21.6243 -7.52955 64.7661 -13.2666
lowerback 4.66799 -2.08073 -5.69518
upperback -2.3962 -3.17819 -0.551096
thorax -4.83601 -1.39203 2.8879
lowerneck -13.8801 -6.23856 -4.05191
upperneck 39.2792 -9.10242 4.36274
head 17.0587 -3.45384 1.0953
rclavicle 9.35406e-014 -9.54166e-015
rhumerus -40.4988 -10.931 -81.2393
rradius 31.5243
rwrist -4.54105
rhand -36.8859 2.91863
rfingers 7.12502
rthumb -9.96452 -26.8255
lclavicle 9.35406e-014 -9.54166e-015
lhumerus -33.8948 12.7689 80.772
lradius 24.1789
lwrist 18.6201
lhand -27.8231 30.5867
lfingers 7.12502
lthumb -1.21503 60.563
rfemur -21.4971 -0.83553 23.8578
rtibia 39.1209
rfoot -24.1832 3.83373
rtoes -10.6901
lfemur -4.46772 -5.41083 -11.8189
ltibia 34.6442
lfoot -47.9599 12.4148
ltoes -16.2929
52
root 2.06278 19.5304 -21.3377 -6.96164 63.7471 -12.5563
lowerback 4.72236 -2.03938 -5.72401
upperback -2.39441 -3.12707 -0.497521
thorax -4.86538 -1.36429 2.95819
lowerneck -13.9685 -6.09527 -3.91478
upperneck 39.2485 -8.9074 4.28054
head 17.0347 -3.36901 1.06739
rclavicle -5.89272e-014 -1.11319e-014
rhumerus -40.1884 -13.2649 -80.2613
rradius 30.8746
rwrist -5.38956
rhand -37.232 1.83904
rfingers 7.12502
rthumb -10.2984 -27.8888
lclavicle -5.89272e-014 -1.11319e-014
lhumerus -34.4922 12.6267 81.149
lradius 24.3725
lwrist 18.8239
lhand -27.4392 30.1081
lfingers 7.12502
lthumb -0.844238 60.0862
rfemur -21.7984 -0.802193 23.7035
rtibia 39.4963
rfoot -23.3036 3.9178
rtoes -11.2288
lfemur -4.12914 -5.05319 -12.1864
ltibia 34.5658
lfoot -48.3439 12.6377
ltoes -15.9054
53
root 2.09151 19.5311 -21.0521 -6.38249 62.7263 -11.8139
lowerback 4.79337 -2.00124 -5.7808
upperback -2.39227 -3.08414 -0.466885
thorax -4.90324 -1.33965 3.02157
lowerneck -14.042 -5.94502 -3.7624
upperneck 39.2258 -8.71087 4.20826
head 17.0116 -3.27985 1.04215
rclavicle 6.20954e-014 3.18055e-015
rhumerus -39.9479 -15.3521 -79.4296
rradius 30.3337
rwrist -6.24209
rhand -37.6799 0.748404
rfingers 7.12502
rthumb -10.7305 -28.9575
lclavicle 6.20954e-014 3.18055e-015
lhumerus -35.0456 12.3981 81.569
lradius 24.5965
lwrist 19.1195
lhand -27.0655 29.5446
lfingers 7.12502
lthumb -0.483391 59.5238
rfemur -22.0975 -0.782817 23.5121
rtibia 39.8712
rfoot -22.4151 4.04198
rtoes -11.7313
lfemur -3.80628 -4.59494 -12.575
ltibia 34.5064
lfoot -48.6485 12.8366
ltoes -15.5792
54
root 2.11994 19.5321 -20.7663 -5.80424 61.7039 -11.0575
lowerback 4.87156 -1.96601 -5.86675
upperback -2.39218 -3.04846 -0.455796
thorax -4.94654 -1.3176 3.08177
lowerneck -14.1008 -5.78882 -3.5972
upperneck 39.2156 -8.51274 4.14376
head 16.9922 -3.18681 1.01905
rclavicle -7.00716e-015 -7.95139e-015
rhumerus -39.7639 -17.1738 -78.7482
rradius 29.8893
rwrist -7.05221
rhand -38.1758 -0.26767
rfingers 7.12502
rthumb -11.2088 -29.9482
lclavicle -7.00716e-015 -7.95139e-015
lhumerus -35.5592 12.0734 82.0314
lradius 24.8486
lwrist 19.493
lhand -26.7282 28.9238
lfingers 7.12502
lthumb -0.157527 58.9035
rfemur -22.3824 -0.744505 23.2912
rtibia 40.2265
rfoot -21.5612 4.20428
rtoes -12.1743
lfemur -3.50179 -4.02582 -12.9727
ltibia 34.4638
lfoot -48.8727 13.0251
ltoes -15.3384
55
root 2.14792 19.5332 -20.4813 -5.24507 60.6977 -10.3291
lowerback 4.94964 -1.94093 -5.94611
upperback -2.40358 -3.02704 -0.460766
thorax -5.00181 -1.30235 3.12295
lowerneck -14.1485 -5.628 -3.42677
upperneck 39.2253 -8.31173 4.08465
head 16.9815 -3.09048 0.998555
rclavicle -2.29348e-014 6.36111e-015
rhumerus -39.62 -18.7032 -78.2236
rradius 29.5228
rwrist -7.75419
rhand -38.6106 -1.18645
rfingers 7.12502
rthumb -11.6282 -30.8438
lclavicle -2.29348e-014 6.36111e-015
lhumerus -36.0332 11.6672 82.5303
lradius 25.1183
lwrist 19.9015
lhand -26.4233 28.2711
lfingers 7.12502
lthumb 0.136928 58.2508
rfemur -22.6676 -0.692559 23.056
rtibia 40.5503
rfoot -20.7506 4.43526
rtoes -12.4081
lfemur -3.24307 -3.3643 -13.3599
ltibia 34.4361
lfoot -49.0211 13.2057
ltoes -15.1622
56
root 2.17561 19.5342 -20.1965 -4.71844 59.7074 -9.64341
lowerback 5.02152 -1.92692 -6.01348
upperback -2.42407 -3.02002 -0.47697
thorax -5.06292 -1.29433 3.14684
lowerneck -14.1911 -5.45912 -3.2459
upperneck 39.2585 -8.09953 4.01938
head 16.9816 -2.9881 0.975974
rclavicle 7.43948e-014 -4.77083e-015
rhumerus -39.5007 -19.9227 -77.8632
rradius 29.2252
rwrist -8.29301
rhand -39.0398 -1.912
rfingers 7.12502
rthumb -12.0421 -31.5455
lclavicle 7.43948e-014 -4.77083e-015
lhumerus -36.4638 11.2038 83.0537
lradius 25.3914
lwrist 20.2844
lhand -26.1445 27.5951
lfingers 7.12502
lthumb 0.406139 57.5745
rfemur -22.9461 -0.62391 22.8172
rtibia 40.8393
rfoot -19.9905 4.72364
rtoes -12.4554
lfemur -3.02271 -2.62779 -13.7287
ltibia 34.4216
lfoot -49.1132 13.3785
ltoes -15.108
57
root 2.20304 19.5345 -19.9117 -4.24212 58.7303 -9.02062
lowerback 5.08378 -1.92312 -6.06087
upperback -2.45103 -3.02506 -0.497649
thorax -5.12537 -1.29282 3.15562
lowerneck -14.2372 -5.28988 -3.05316
upperneck 39.3222 -7.8853 3.93897
head 16.9983 -2.88418 0.945109
rclavicle -2.00462e-014 1.59028e-015
rhumerus -39.3944 -20.8293 -77.6634
rradius 28.9914
rwrist -8.63009
rhand -39.3988 -2.43832
rfingers 7.12502
rthumb -12.3881 -32.0513
lclavicle -2.00462e-014 1.59028e-015
lhumerus -36.8455 10.6854 83.5993
lradius 25.6611
lwrist 20.6204
lhand -25.8937 26.9106
lfingers 7.12502
lthumb 0.648454 56.8894
rfemur -23.2173 -0.528056 22.5914
rtibia 41.0973
rfoot -19.2875 5.04911
rtoes -12.2876
lfemur -2.8296 -1.85103 -14.066
ltibia 34.4214
lfoot -49.2007 13.4393
ltoes -14.9323
58
root 2.23032 19.5341 -19.6271 -3.82388 57.7685 -8.47355
lowerback 5.12687 -1.92774 -6.08628
upperback -2.47875 -3.03819 -0.51199
thorax -5.17755 -1.29631 3.15859
lowerneck -14.2931 -5.12016 -2.8513
upperneck 39.4093 -7.66389 3.83389
head 17.0286 -2.77852 0.902838
rclavicle 2.61464e-014 0
rhumerus -39.2829 -21.4088 -77.6213
rradius 28.8213
rwrist -8.77136
rhand -39.657 -2.77398
rfingers 7.12502
rthumb -12.6371 -32.3717
lclavicle 2.61464e-014 0
lhumerus -37.1607 10.1581 84.1598
lradius 25.9087
lwrist 20.8647
lhand -25.6558 26.2109
lfingers 7.12502
lthumb 0.878138 56.1889
rfemur -23.4903 -0.424507 22.3927
rtibia 41.3342
rfoot -18.6167 5.39631
rtoes -11.887
lfemur -2.66449 -1.05805 -14.3661
ltibia 34.4341
lfoot -49.2987 13.4088
ltoes -14.658
59
root 2.258 19.5333 -19.3434 -3.47669 56.8267 -8.01965
lowerback 5.14833 -1.94434 -6.07081
upperback -2.50465 -3.06217 -0.51398
thorax -5.21558 -1.30698 3.15156
lowerneck -14.3609 -4.94934 -2.64343
upperneck 39.5133 -7.43205 3.70115
head 17.0699 -2.67096 0.84877
rclavicle -2.93207e-015 -2.70347e-014
rhumerus -39.1578 -21.6664 -77.7283
rradius 28.7134
rwrist -8.71676
rhand -39.8285 -2.89933
rfingers 7.12502
rthumb -12.8025 -32.4868
lclavicle -2.93207e-015 -2.70347e-014
lhumerus -37.4077 9.62302 84.7354
lradius 26.1358
lwrist 21.0026
lhand -25.414 25.5042
lfingers 7.12502
lthumb 1.11173 55.4811
rfemur -23.7742 -0.340144 22.2373
rtibia 41.5626
rfoot -17.9565 5.73991
rtoes -11.3649
lfemur -2.52396 -0.282062 -14.6239
ltibia 34.458
lfoot -49.4274 13.2858
ltoes -14.2583
60
root 2.28629 19.5322 -19.061 -3.19965 55.9033 -7.65202
lowerback 5.15142 -1.96708 -6.01293
upperback -2.52199 -3.08905 -0.50335
thorax -5.23507 -1.32126 3.13324
lowerneck -14.4398 -4.7811 -2.42665
upperneck 39.6204 -7.19653 3.54177
head 17.1147 -2.56417 0.781379
rclavicle 4.70747e-014 -4.77083e-015
rhumerus -39.018 -21.6307 -77.9671
rradius 28.6734
rwrist -8.4914
rhand -39.8818 -2.8823
rfingers 7.12502
rthumb -12.8538 -32.4665
lclavicle 4.70747e-014 -4.77083e-015
lhumerus -37.5708 9.10917 85.3141
lradius 26.3284
lwrist 21.0065
lhand -25.1593 24.7783
lfingers 7.12502
lthumb 1.35767 54.7538
rfemur -24.0684 -0.269611 22.1277
rtibia 41.7918
rfoot -17.2999 6.03626
rtoes -10.7983
lfemur -2.40049 0.459915 -14.847
ltibia 34.4926
lfoot -49.5935 13.098
ltoes -13.7549
61
root 2.31573 19.531 -18.7804 -2.97393 55.0079 -7.34005
lowerback 5.14095 -1.99682 -5.92557
upperback -2.52511 -3.12107 -0.481067
thorax -5.23208 -1.34007 3.11009
lowerneck -14.5304 -4.61487 -2.21249
upperneck 39.7177 -6.95559 3.36352
head 17.1573 -2.45853 0.706323
rclavicle -2.65874e-014 3.18055e-015
rhumerus -38.8623 -21.3291 -78.3143
rradius 28.7038
rwrist -8.12945
rhand -39.8142 -2.7593
rfingers 7.12502
rthumb -12.7886 -32.3476
lclavicle -2.65874e-014 3.18055e-015
lhumerus -37.6461 8.61694 85.8981
lradius 26.4879
lwrist 20.8881
lhand -24.9072 24.0446
lfingers 7.12502
lthumb 1.60119 54.0183
rfemur -24.3682 -0.254171 22.0488
rtibia 42.0267
rfoot -16.6392 6.28505
rtoes -10.283
lfemur -2.28565 1.14915 -15.0595
ltibia 34.5364
lfoot -49.8049 12.8704
ltoes -13.1914
